<mxfile host="Electron" modified="2025-03-08T17:20:49.317Z" agent="Mozilla/5.0 (X11; Linux x86_64) AppleWebKit/537.36 (KHTML, like Gecko) draw.io/24.4.6 Chrome/124.0.6367.207 Electron/30.0.6 Safari/537.36" etag="S6cvDmDOGuUwmdPfLB8z" version="24.4.6" type="device">
  <diagram name="Page-1" id="xl7Jffss6ngozoZpyH3i">
    <mxGraphModel dx="1257" dy="760" grid="1" gridSize="10" guides="1" tooltips="1" connect="1" arrows="1" fold="1" page="1" pageScale="1" pageWidth="850" pageHeight="1100" math="0" shadow="0">
      <root>
        <mxCell id="0" />
        <mxCell id="1" parent="0" />
        <mxCell id="NeQZnL7xEvKqFsNorwW5-15" style="rounded=0;orthogonalLoop=1;jettySize=auto;html=1;entryX=0;entryY=0.5;entryDx=0;entryDy=0;" parent="1" source="NeQZnL7xEvKqFsNorwW5-2" target="NeQZnL7xEvKqFsNorwW5-3" edge="1">
          <mxGeometry relative="1" as="geometry" />
        </mxCell>
        <mxCell id="NeQZnL7xEvKqFsNorwW5-17" style="edgeStyle=none;rounded=0;orthogonalLoop=1;jettySize=auto;html=1;entryX=0;entryY=0.5;entryDx=0;entryDy=0;" parent="1" source="NeQZnL7xEvKqFsNorwW5-2" target="NeQZnL7xEvKqFsNorwW5-5" edge="1">
          <mxGeometry relative="1" as="geometry" />
        </mxCell>
        <mxCell id="NeQZnL7xEvKqFsNorwW5-18" style="edgeStyle=none;rounded=0;orthogonalLoop=1;jettySize=auto;html=1;entryX=0;entryY=0.5;entryDx=0;entryDy=0;" parent="1" source="NeQZnL7xEvKqFsNorwW5-2" target="NeQZnL7xEvKqFsNorwW5-6" edge="1">
          <mxGeometry relative="1" as="geometry" />
        </mxCell>
        <mxCell id="NeQZnL7xEvKqFsNorwW5-19" style="edgeStyle=none;rounded=0;orthogonalLoop=1;jettySize=auto;html=1;entryX=0;entryY=0.5;entryDx=0;entryDy=0;" parent="1" source="NeQZnL7xEvKqFsNorwW5-2" target="NeQZnL7xEvKqFsNorwW5-8" edge="1">
          <mxGeometry relative="1" as="geometry" />
        </mxCell>
        <mxCell id="NeQZnL7xEvKqFsNorwW5-2" value="Student" style="shape=umlActor;verticalLabelPosition=bottom;verticalAlign=top;html=1;outlineConnect=0;" parent="1" vertex="1">
          <mxGeometry x="30" y="240" width="50" height="80" as="geometry" />
        </mxCell>
        <mxCell id="NeQZnL7xEvKqFsNorwW5-3" value="Login" style="ellipse;whiteSpace=wrap;html=1;" parent="1" vertex="1">
          <mxGeometry x="180" y="20" width="100" height="60" as="geometry" />
        </mxCell>
        <mxCell id="NeQZnL7xEvKqFsNorwW5-4" value="Add task" style="ellipse;whiteSpace=wrap;html=1;" parent="1" vertex="1">
          <mxGeometry x="180" y="100" width="100" height="60" as="geometry" />
        </mxCell>
        <mxCell id="NeQZnL7xEvKqFsNorwW5-5" value="Update task" style="ellipse;whiteSpace=wrap;html=1;" parent="1" vertex="1">
          <mxGeometry x="180" y="180" width="100" height="60" as="geometry" />
        </mxCell>
        <mxCell id="NeQZnL7xEvKqFsNorwW5-6" value="View&amp;nbsp;&lt;span style=&quot;background-color: initial;&quot;&gt;task&lt;/span&gt;" style="ellipse;whiteSpace=wrap;html=1;" parent="1" vertex="1">
          <mxGeometry x="180" y="260" width="100" height="60" as="geometry" />
        </mxCell>
        <mxCell id="NeQZnL7xEvKqFsNorwW5-7" value="Add priority" style="ellipse;whiteSpace=wrap;html=1;" parent="1" vertex="1">
          <mxGeometry x="180" y="420" width="100" height="60" as="geometry" />
        </mxCell>
        <mxCell id="NeQZnL7xEvKqFsNorwW5-8" value="complete task" style="ellipse;whiteSpace=wrap;html=1;" parent="1" vertex="1">
          <mxGeometry x="180" y="340" width="100" height="60" as="geometry" />
        </mxCell>
        <mxCell id="NeQZnL7xEvKqFsNorwW5-21" style="edgeStyle=none;rounded=0;orthogonalLoop=1;jettySize=auto;html=1;entryX=1;entryY=0.5;entryDx=0;entryDy=0;" parent="1" source="NeQZnL7xEvKqFsNorwW5-9" target="NeQZnL7xEvKqFsNorwW5-13" edge="1">
          <mxGeometry relative="1" as="geometry" />
        </mxCell>
        <mxCell id="NeQZnL7xEvKqFsNorwW5-22" style="edgeStyle=none;rounded=0;orthogonalLoop=1;jettySize=auto;html=1;entryX=1;entryY=0.5;entryDx=0;entryDy=0;" parent="1" source="NeQZnL7xEvKqFsNorwW5-9" target="NeQZnL7xEvKqFsNorwW5-14" edge="1">
          <mxGeometry relative="1" as="geometry" />
        </mxCell>
        <mxCell id="NeQZnL7xEvKqFsNorwW5-23" style="edgeStyle=none;rounded=0;orthogonalLoop=1;jettySize=auto;html=1;entryX=1;entryY=0.5;entryDx=0;entryDy=0;" parent="1" source="NeQZnL7xEvKqFsNorwW5-9" target="NeQZnL7xEvKqFsNorwW5-12" edge="1">
          <mxGeometry relative="1" as="geometry" />
        </mxCell>
        <mxCell id="NeQZnL7xEvKqFsNorwW5-9" value="Teacher" style="shape=umlActor;verticalLabelPosition=bottom;verticalAlign=top;html=1;outlineConnect=0;" parent="1" vertex="1">
          <mxGeometry x="540" y="240" width="50" height="80" as="geometry" />
        </mxCell>
        <mxCell id="NeQZnL7xEvKqFsNorwW5-12" value="Set dead ling" style="ellipse;whiteSpace=wrap;html=1;" parent="1" vertex="1">
          <mxGeometry x="375" y="330" width="100" height="60" as="geometry" />
        </mxCell>
        <mxCell id="NeQZnL7xEvKqFsNorwW5-13" value="Grade task" style="ellipse;whiteSpace=wrap;html=1;" parent="1" vertex="1">
          <mxGeometry x="380" y="170" width="100" height="60" as="geometry" />
        </mxCell>
        <mxCell id="NeQZnL7xEvKqFsNorwW5-14" value="View&amp;nbsp;&lt;span style=&quot;background-color: initial;&quot;&gt;task&lt;/span&gt;" style="ellipse;whiteSpace=wrap;html=1;" parent="1" vertex="1">
          <mxGeometry x="380" y="250" width="100" height="60" as="geometry" />
        </mxCell>
        <mxCell id="NeQZnL7xEvKqFsNorwW5-16" style="edgeStyle=none;rounded=0;orthogonalLoop=1;jettySize=auto;html=1;entryX=0;entryY=0.5;entryDx=0;entryDy=0;" parent="1" source="NeQZnL7xEvKqFsNorwW5-2" target="NeQZnL7xEvKqFsNorwW5-4" edge="1">
          <mxGeometry relative="1" as="geometry" />
        </mxCell>
        <mxCell id="NeQZnL7xEvKqFsNorwW5-20" style="edgeStyle=none;rounded=0;orthogonalLoop=1;jettySize=auto;html=1;entryX=-0.027;entryY=0.333;entryDx=0;entryDy=0;entryPerimeter=0;" parent="1" source="NeQZnL7xEvKqFsNorwW5-2" target="NeQZnL7xEvKqFsNorwW5-7" edge="1">
          <mxGeometry relative="1" as="geometry" />
        </mxCell>
        <mxCell id="NeQZnL7xEvKqFsNorwW5-33" style="edgeStyle=none;rounded=0;orthogonalLoop=1;jettySize=auto;html=1;entryX=0;entryY=0.5;entryDx=0;entryDy=0;exitX=1;exitY=0.3333333333333333;exitDx=0;exitDy=0;exitPerimeter=0;" parent="1" source="NeQZnL7xEvKqFsNorwW5-27" target="NeQZnL7xEvKqFsNorwW5-30" edge="1">
          <mxGeometry relative="1" as="geometry" />
        </mxCell>
        <mxCell id="NeQZnL7xEvKqFsNorwW5-35" style="edgeStyle=none;rounded=0;orthogonalLoop=1;jettySize=auto;html=1;exitX=1;exitY=0.3333333333333333;exitDx=0;exitDy=0;exitPerimeter=0;entryX=0;entryY=0.5;entryDx=0;entryDy=0;" parent="1" source="NeQZnL7xEvKqFsNorwW5-27" target="NeQZnL7xEvKqFsNorwW5-31" edge="1">
          <mxGeometry relative="1" as="geometry" />
        </mxCell>
        <mxCell id="NeQZnL7xEvKqFsNorwW5-27" value="Admin" style="shape=umlActor;verticalLabelPosition=bottom;verticalAlign=top;html=1;outlineConnect=0;" parent="1" vertex="1">
          <mxGeometry x="30" y="560" width="50" height="80" as="geometry" />
        </mxCell>
        <mxCell id="NeQZnL7xEvKqFsNorwW5-30" value="Add uesr" style="ellipse;whiteSpace=wrap;html=1;" parent="1" vertex="1">
          <mxGeometry x="200" y="520" width="100" height="60" as="geometry" />
        </mxCell>
        <mxCell id="NeQZnL7xEvKqFsNorwW5-31" value="Remove user" style="ellipse;whiteSpace=wrap;html=1;" parent="1" vertex="1">
          <mxGeometry x="200" y="610" width="100" height="60" as="geometry" />
        </mxCell>
        <mxCell id="NeQZnL7xEvKqFsNorwW5-34" style="edgeStyle=none;rounded=0;orthogonalLoop=1;jettySize=auto;html=1;exitX=0;exitY=0.3333333333333333;exitDx=0;exitDy=0;exitPerimeter=0;" parent="1" source="NeQZnL7xEvKqFsNorwW5-27" target="NeQZnL7xEvKqFsNorwW5-27" edge="1">
          <mxGeometry relative="1" as="geometry" />
        </mxCell>
      </root>
    </mxGraphModel>
  </diagram>
</mxfile>
